<?xml version="1.0" encoding="UTF-8"?>
<svg width="56px" height="56px" viewBox="0 0 56 56" version="1.1" xmlns="http://www.w3.org/2000/svg" xmlns:xlink="http://www.w3.org/1999/xlink">
    <title>编组 8备份 2</title>
    <defs>
        <radialGradient cx="50%" cy="50%" fx="50%" fy="50%" r="50.0497752%" id="radialGradient-1">
            <stop stop-color="#26E3AB" offset="0%"></stop>
            <stop stop-color="#19CF88" stop-opacity="0" offset="73.2815383%"></stop>
            <stop stop-color="#11C372" offset="100%"></stop>
        </radialGradient>
        <circle id="path-2" cx="28" cy="28" r="28"></circle>
        <mask id="mask-3" maskContentUnits="userSpaceOnUse" maskUnits="objectBoundingBox" x="0" y="0" width="56" height="56" fill="white">
            <use xlink:href="#path-2"></use>
        </mask>
    </defs>
    <g id="控件" stroke="none" stroke-width="1" fill="none" fill-rule="evenodd">
        <g id="编组-8备份-2">
            <use id="椭圆形" stroke="url(#radialGradient-1)" mask="url(#mask-3)" stroke-width="12" opacity="0.300000012" stroke-dasharray="40,15" xlink:href="#path-2"></use>
            <circle id="椭圆形备份-6" fill="#11C372" cx="28" cy="28" r="22"></circle>
            <path d="M26.6416036,21.3855813 C28.1575358,21.4150812 29.3915578,20.170723 29.362303,18.6420933 C29.3357077,17.1939178 28.1761525,16.027332 26.7426657,16.0005139 C25.2267335,15.971014 23.9927115,17.2153722 24.0219663,18.7440019 C24.0485616,20.1921774 25.2081168,21.3587632 26.6416036,21.3855813 L26.6416036,21.3855813 Z M23.6336749,32.1503525 C23.6336749,32.1503525 20.4262814,30.5707685 19.1470474,30.2704061 C18.8677967,30.2060428 18.588546,30.3749966 18.5140792,30.6512227 C18.1204687,32.1101254 16.5087934,37.4871473 16.0194398,39.265185 C15.9263563,39.6057744 16.1790116,39.9436821 16.5327291,39.9436821 L17.4688838,39.9436821 C17.6843057,39.9436821 17.8757919,39.8149554 17.9582374,39.6138199 C18.498122,38.3104619 20.0752234,33.5180738 20.3145811,33.5180738 C22.1071045,33.5073465 23.6150582,35.8432 23.5565485,36.5431515 C23.4820817,37.4066931 22.9927281,38.4472341 22.6097557,39.1471855 C22.41561,39.5038658 22.6709249,39.9436821 23.0751735,39.9436821 L24.1469642,39.9436821 C24.3331313,39.9436821 24.5086603,39.8444552 24.6044034,39.680865 C25.5724724,38.0395995 25.8942756,37.0258766 25.8969928,36.4171066 C25.9075732,34.9045677 24.4448316,32.5284872 23.6336749,32.1503525 Z M39.8913832,38.7931871 L35.4153938,30.2516335 C34.6893421,28.983139 33.1760694,29.8815442 32.4500176,31.1500387 L30.5112201,33.8881631 L29.4846414,32.9093037 C29.5059176,32.780577 29.5059176,32.627714 29.4766628,32.4533966 C29.1468811,30.5198141 27.6814799,23.9037976 26.6096892,22.8418022 C26.5751153,22.8069387 26.5352224,22.7774389 26.4900103,22.7559844 L23.1709166,20.9833103 C23.0033662,20.8921289 22.8145396,20.8519018 22.6230534,20.8599472 C21.4661577,20.9162652 18.8305633,21.3051271 17.9848327,21.4338538 C17.8172822,21.4606719 17.6710081,21.5652623 17.5912222,21.7154435 C17.3172906,22.2464412 16.5460268,23.5524809 16.1178424,24.5715674 C15.9476325,24.9738384 16.0380565,25.4404727 16.346562,25.7488804 L16.918361,26.2155148 L18.8997111,27.7575535 C19.07524,27.8943256 19.1497069,28.1276428 19.0832186,28.3421873 C18.9076896,28.9026848 19.0646019,28.4950502 18.9981137,28.7578673 C18.9316254,29.0233661 19.0725805,29.2995922 19.330555,29.3934554 C20.2401143,29.7286812 22.6709249,31.0186301 23.6070796,31.2868108 C23.8703731,31.3619014 23.8251611,31.0910389 23.9262232,30.8362673 L23.8225015,30.6968134 L29.6575109,35.2022482 L27.3304219,39.1954581 C27.1256381,39.5521383 27.380953,40 27.7905206,40 L39.1999053,40 C39.8142568,40 40.1998887,39.3295484 39.8913832,38.7931871 Z M20.8039347,23.8716159 C20.5486198,24.3462956 20.3145811,24.8987478 20.0113947,25.6871989 C19.8757587,26.0438791 19.4236385,26.143106 19.1497069,25.8802889 L18.0885543,24.8746115 C18.0353637,24.8290208 18.4848243,23.8501614 18.7614155,23.3325728 C18.8571586,23.1528918 19.0433257,23.0456195 19.24545,23.0509831 L20.3544741,23.0831648 C20.7480846,23.0912102 20.9927614,23.5202993 20.8039347,23.8716159 L20.8039347,23.8716159 Z M24.4714269,29.0582296 L25.184181,27.2855555 C25.3703481,26.8162394 26.0378902,26.8430575 26.1868239,27.3257826 C26.5697963,28.5781863 27.1096809,30.4688598 27.6841394,31.7373543 L24.4714269,29.0582296 Z" id="形状" fill="#FFFFFF" fill-rule="nonzero"></path>
        </g>
    </g>
</svg>