<?xml version="1.0" encoding="UTF-8"?>
<svg width="16px" height="16px" viewBox="0 0 16 16" version="1.1" xmlns="http://www.w3.org/2000/svg" xmlns:xlink="http://www.w3.org/1999/xlink">
    <title>地点</title>
    <g id="控件" stroke="none" stroke-width="1" fill="none" fill-rule="evenodd">
        <g id="地点" fill="#FFFFFF">
            <rect id="矩形" opacity="0" x="0" y="0" width="16" height="16"></rect>
            <g id="地址" transform="translate(3.000000, 2.000000)" fill-opacity="0.25" fill-rule="nonzero">
                <path d="M5.14285714,6.85714286 C6.09022556,6.85714286 6.85714286,6.08885851 6.85714286,5.14285714 C6.85714286,4.19685578 6.08885851,3.42857143 5.14285714,3.42857143 C4.19685578,3.42857143 3.42857143,4.19548872 3.42857143,5.14285714 C3.42857143,6.09022556 4.19548872,6.85714286 5.14285714,6.85714286 L5.14285714,6.85714286 Z M5.14285714,12 C1.71519684,9.32224627 0,7.03679235 0,5.14363823 C0,2.3032236 2.30287385,0 5.14285714,0 C7.98284044,0 10.2857143,2.3032236 10.2857143,5.14363823 C10.2857143,7.03679235 8.57051744,9.32224627 5.14285714,12 Z" id="形状"></path>
            </g>
        </g>
    </g>
</svg>