<?xml version="1.0" encoding="UTF-8"?>
<svg width="16px" height="16px" viewBox="0 0 16 16" version="1.1" xmlns="http://www.w3.org/2000/svg" xmlns:xlink="http://www.w3.org/1999/xlink">
    <title>时间</title>
    <g id="控件" stroke="none" stroke-width="1" fill="none" fill-rule="evenodd">
        <g id="图标/时间" fill-rule="nonzero">
            <g id="时间">
                <rect id="矩形" fill="#000000" opacity="0" x="0" y="0" width="16" height="16"></rect>
                <rect id="矩形" fill="#000000" opacity="0" x="0" y="0" width="16" height="16"></rect>
                <path d="M8,2 C4.67820069,2 2,4.67974611 2,8.0034622 C2,11.3271783 4.71280277,14 8,14 C11.3217993,14 14,11.3202539 14,7.9965378 C14,4.6728217 11.2941176,2 8,2 Z M11.9100346,9.81765724 C11.8200692,10.0046163 11.6608997,10.0946336 11.4809689,10.0946336 C11.4186851,10.0946336 11.3564014,10.0946336 11.2941176,10.0669359 L7.75778547,8.46047317 C7.60553633,8.39815349 7.48096886,8.21119446 7.48096886,8.03115984 L7.48096886,4.70744374 C7.48096886,4.45816503 7.69550173,4.24350837 7.94463668,4.24350837 C8.19377163,4.24350837 8.4083045,4.45816503 8.4083045,4.70744374 L8.4083045,7.7541835 L11.6678201,9.22908252 C11.9100346,9.31909983 12,9.56837853 11.9100346,9.81765724 Z" id="形状" fill-opacity="0.25" fill="#FFFFFF"></path>
            </g>
        </g>
    </g>
</svg>