<?xml version="1.0" encoding="UTF-8"?>
<svg width="18px" height="18px" viewBox="0 0 18 18" version="1.1" xmlns="http://www.w3.org/2000/svg" xmlns:xlink="http://www.w3.org/1999/xlink">
    <title>第一名</title>
    <g id="工程车" stroke="none" stroke-width="1" fill="none" fill-rule="evenodd">
        <g id="工程车专题-工程车" transform="translate(-1532.000000, -572.000000)" fill-rule="nonzero">
            <g id="编组-21" transform="translate(1532.000000, 569.000000)">
                <g id="第一名" transform="translate(0.000000, 3.000000)">
                    <path d="M8.94287109,18 C13.8683057,18 17.865769,14.0025366 17.865769,9.07710205 C17.865769,4.15166748 13.8683057,0.154182129 8.94287109,0.154182129 C4.01743652,0.154182129 0.0199731445,4.15166748 0.0199731445,9.07712402 C0.0199731445,14.0025806 4.01743652,18 8.94287109,18 Z" id="路径" fill="#FEE751"></path>
                    <path d="M15.3673682,9.07710205 C15.3673682,5.50792969 12.5120215,2.65260498 8.94287109,2.65260498 C5.3737207,2.65260498 2.51837402,5.50795166 2.51837402,9.07710205 C2.51837402,12.6462524 5.3737207,15.5015771 8.94287109,15.5015771 C12.5120215,15.5015771 15.3673682,12.6462524 15.3673682,9.07712402 L15.3673682,9.07710205 Z" id="路径" fill="#FFDE3A"></path>
                    <path d="M15.3673682,9.07710205 C15.3673682,5.50792969 12.5120215,2.65260498 8.94287109,2.65260498 C5.3737207,2.65260498 2.51837402,5.50795166 2.51837402,9.07710205 C2.51837402,12.6462524 5.3737207,15.5015771 8.94287109,15.5015771 C12.5120215,15.5015771 15.3673682,12.6462524 15.3673682,9.07712402 L15.3673682,9.07710205 Z M16.0811938,9.07710205 C16.0811938,13.0031763 12.8689453,16.2154248 8.94287109,16.2154248 C5.01679687,16.2154248 1.80454834,13.0031763 1.80454834,9.07710205 C1.80454834,5.15102783 5.01679687,1.9387793 8.94287109,1.9387793 C12.8689453,1.9387793 16.0811938,5.15100586 16.0811938,9.07710205 L16.0811938,9.07710205 Z" id="形状" fill="#FFBC00"></path>
                    <g id="1" transform="translate(6.000000, 4.000000)">
                        <g id="path-1-link" transform="translate(1.000000, 1.000000)" fill="#B68700">
                            <polygon id="path-1" points="3.46875 8.65429688 3.46875 -2.66453526e-14 0 0.3046875 0 1.61132813 1.76367188 1.61132813 1.76367188 8.65429688"></polygon>
                        </g>
                        <g id="path-1-link" fill="#FFFFFF">
                            <polygon id="path-1" points="3.6640625 9 3.6640625 0.34570312 0.1953125 0.65039062 0.1953125 1.95703125 1.95898438 1.95703125 1.95898438 9"></polygon>
                        </g>
                    </g>
                </g>
            </g>
        </g>
    </g>
</svg>