<?xml version="1.0" encoding="UTF-8"?>
<svg width="16px" height="16px" viewBox="0 0 16 16" version="1.1" xmlns="http://www.w3.org/2000/svg" xmlns:xlink="http://www.w3.org/1999/xlink">
    <title>编组 2</title>
    <g id="控件" stroke="none" stroke-width="1" fill="none" fill-rule="evenodd">
        <g id="编组-2">
            <g id="建设" fill="#000000" fill-rule="nonzero" opacity="0">
                <rect id="矩形" x="0" y="0" width="16" height="16"></rect>
            </g>
            <path d="M9.96816459,2.54593851 C9.98921654,2.60207704 10,2.66154426 10,2.72150023 L10,14 L2,14 L2,5.34650023 C2,5.13807795 2.12928642,4.95151759 2.32443828,4.87833565 L9.32443828,2.25333565 C9.58299844,2.15637558 9.87120453,2.28737835 9.96816459,2.54593851 Z M7.5,11 L4.5,11 C4.22385763,11 4,11.2238576 4,11.5 C4,11.7761424 4.22385763,12 4.5,12 L4.5,12 L7.5,12 C7.77614237,12 8,11.7761424 8,11.5 C8,11.2238576 7.77614237,11 7.5,11 L7.5,11 Z M7.5,9 L4.5,9 C4.22385763,9 4,9.22385763 4,9.5 C4,9.77614237 4.22385763,10 4.5,10 L4.5,10 L7.5,10 C7.77614237,10 8,9.77614237 8,9.5 C8,9.22385763 7.77614237,9 7.5,9 L7.5,9 Z M7.5,7 L4.5,7 C4.22385763,7 4,7.22385763 4,7.5 C4,7.77614237 4.22385763,8 4.5,8 L4.5,8 L7.5,8 C7.77614237,8 8,7.77614237 8,7.5 C8,7.22385763 7.77614237,7 7.5,7 L7.5,7 Z" id="形状结合" fill-opacity="0.25" fill="#FFFFFF"></path>
            <path d="M11.2928932,8.70710678 L13.487868,6.51213203 C13.6050253,6.39497475 13.7949747,6.39497475 13.912132,6.51213203 C13.9683929,6.56839295 14,6.64469912 14,6.72426407 L14,14 L14,14 L11,14 L11,9.41421356 C11,9.14899707 11.1053568,8.89464316 11.2928932,8.70710678 Z" id="矩形备份" fill-opacity="0.25" fill="#FFFFFF" transform="translate(12.500000, 10.000000) scale(-1, 1) translate(-12.500000, -10.000000) "></path>
        </g>
    </g>
</svg>