<?xml version="1.0" encoding="UTF-8"?>
<svg width="24px" height="24px" viewBox="0 0 24 24" version="1.1" xmlns="http://www.w3.org/2000/svg" xmlns:xlink="http://www.w3.org/1999/xlink">
    <title>图标/热力</title>
    <g id="控件" stroke="none" stroke-width="1" fill="none" fill-rule="evenodd">
        <g id="图标/热力" fill="#FFFFFF" fill-rule="nonzero">
            <g id="编组">
                <path d="M10.8075913,8.70699242 C8.52935215,8.65432022 7.71926711,10.2118171 7.71926711,12.100682 C7.71926711,13.9888803 8.54935425,15.8037375 11.0116128,15.5317089 C12.8191358,15.3323547 14.7073341,13.3348116 14.7073341,12.1293517 C14.7073341,10.9238918 12.6251155,8.74833009 10.8075913,8.70699242 L10.8075913,8.70699242 Z M14.9586938,7.69288596 C13.5318773,6.78012346 11.8443668,5.82402309 10.4302184,5.79135299 C6.37112557,5.69734312 5.02431751,8.71699347 5.02431751,12.0706789 C5.02431751,15.4236976 6.50313943,18.6453691 10.8902667,18.1633185 C12.0917261,18.0313047 13.236513,17.4225741 14.4566411,16.691164 C16.5055229,15.4623683 18.3890539,13.7255193 18.3563838,12.128685 C18.3210468,10.4638435 16.7995537,8.8703429 14.9586938,7.69288596 Z M13.39853,15.8610768 C12.4777667,16.4431379 11.613676,16.9278555 10.7062474,17.0331999 C7.39389961,17.4172402 6.27778244,14.8523043 6.27778244,12.1840241 C6.27778244,9.51441052 7.29455585,7.11149158 10.3595443,7.18616609 C11.4269897,7.21216882 12.7011235,7.97291535 13.7785699,8.69965832 C15.1680491,9.63642333 16.3161697,10.9058899 16.3428391,12.2306957 C16.3675084,13.5001623 14.9453591,14.8829741 13.39853,15.8610768 L13.39853,15.8610768 Z M16.9062316,5.75801616 C14.7653402,4.43587735 12.2337411,3.05039856 10.1115183,3.00306026 C4.02087883,2.86771272 2,7.24217197 2,12.1013488 C2,16.9605256 4.21889962,21.6290157 10.8022574,20.9302757 C12.6051134,20.7389223 14.3219603,19.8568297 16.1521524,18.7973851 C19.2271419,17.0171982 22.0534386,14.4996006 22.0034334,12.1860243 C21.9514279,9.77377108 19.6685216,7.46352854 16.9062316,5.75801616 Z M15.2740602,17.9652977 C13.7212306,18.8753933 12.2624107,19.6334729 10.7322501,19.7981568 C5.14433011,20.3982198 3.2601323,16.3884655 3.2601323,12.2140273 C3.2601323,8.03892228 4.97564573,4.28119444 10.1461886,4.39720662 C11.947711,4.43787756 14.09727,5.62800251 15.9141274,6.76345505 C18.2590403,8.22894223 20.196577,10.2138173 20.2405817,12.2853681 C20.2832528,14.2729101 17.8843343,16.4358038 15.2740602,17.9652977 Z" id="形状"></path>
            </g>
        </g>
    </g>
</svg>