<?xml version="1.0" encoding="UTF-8"?>
<svg width="24px" height="24px" viewBox="0 0 24 24" version="1.1" xmlns="http://www.w3.org/2000/svg" xmlns:xlink="http://www.w3.org/1999/xlink">
    <title>图标/公安监控</title>
    <g id="控件" stroke="none" stroke-width="1" fill="none" fill-rule="evenodd">
        <g id="编组">
            <g id="编组-13" fill="#000000" opacity="0">
                <rect id="矩形" x="0" y="0" width="24" height="24"></rect>
            </g>
            <path d="M11.9369438,1 L12.6159692,1.65472935 L12.6159692,1.65472935 L12.7505284,1.78918587 C13.5876837,2.59801904 15.7040797,4.16136739 19.6169439,4.28603844 L19.9668719,4.29324943 L20.3054793,4.29578625 L20.4495891,4.71046967 C20.7326041,5.59721207 22.3106274,11.2583088 18.3754627,16.605805 L18.0521604,17.0111474 C16.9946994,18.3103736 16.1476938,19.0927031 15.7608259,19.4256887 L15.5344204,19.613086 C14.6533,20.3528564 13.6559001,21.0444236 12.574973,21.6666216 L12.1067001,21.9289691 L11.8613456,22 L11.5779657,21.9262017 C1.59124017,16.4834105 2.84674041,7.30340524 3.31438917,5.10298578 L3.43124512,4.6193457 L3.52879844,4.29670873 L3.88279702,4.29324943 C8.23286014,4.25266036 10.465722,2.44206503 11.2237407,1.6657991 L11.4778954,1.43850031 C11.6153483,1.31184397 11.7683644,1.1656772 11.9369438,1 Z M12.0003626,5.4644022 L10.4546239,8.75731012 L7.00009312,9.28528234 L9.49995836,11.848091 L8.90942415,15.4644022 L12.0009017,13.7562249 L15.0877973,15.4644022 L14.4994193,11.848091 L17.0000931,9.28528234 L13.5442147,8.75731012 L12.0003626,5.4644022 Z" id="形状" fill="#FFFFFF" fill-rule="nonzero"></path>
        </g>
    </g>
</svg>