<?xml version="1.0" encoding="UTF-8"?>
<svg width="24px" height="24px" viewBox="0 0 24 24" version="1.1" xmlns="http://www.w3.org/2000/svg" xmlns:xlink="http://www.w3.org/1999/xlink">
    <title>图标/重复</title>
    <g id="控件" stroke="none" stroke-width="1" fill="none" fill-rule="evenodd">
        <g id="图标/重复" fill="#FFFFFF" fill-rule="nonzero">
            <g id="编组">
                <path d="M16.4591381,6 C13.448331,6 10.9735577,8.49105463 10.9735577,11.5757542 C10.9735577,13.4656494 9.44561072,15.1263525 7.48432789,15.1263525 C5.56061753,15.1263525 3.99384562,13.5332798 3.99384564,11.5757542 C3.99384564,9.62073349 5.55936513,8.02766085 7.48432789,8.02766085 C8.6490744,8.02766085 9.67355035,8.61504376 10.3085251,9.50676368 C10.5287154,8.81278372 10.8677276,8.16230414 11.3104575,7.58430573 C10.2952621,6.57028036 8.91920384,6.00048865 7.48432789,6 C4.45598698,6 2,8.4973167 2,11.5757542 C2,14.6566966 4.45473457,17.1527609 7.48558032,17.1527609 C10.4963874,17.1527609 12.9686558,14.6629587 12.9686558,11.5757542 C12.9686558,9.68460668 14.5016125,8.02766085 16.4591381,8.02766085 C18.3841008,8.02766085 19.9496203,9.61822866 19.9496203,11.5757542 C19.9526469,12.7443225 19.3814844,13.8398308 18.4216733,14.5064067 L18.1987433,13.9077521 C17.9582795,13.2615056 17.4648278,13.2176711 17.0941128,13.8100637 L16.2875571,15.1050614 L15.7602902,15.9491895 C15.39208,16.5403297 15.6425631,17.180314 16.3013337,17.3744385 L18.6734088,18.0720339 C19.3409463,18.2686632 19.6878655,17.9054627 19.442392,17.2479445 L19.1418123,16.438884 C20.8808375,15.4381673 21.9500945,13.5821437 21.9434966,11.5757542 C21.9434966,8.49856911 19.4887314,6 16.4591381,6 L16.4591381,6 Z" id="路径"></path>
            </g>
        </g>
    </g>
</svg>