<?xml version="1.0" encoding="UTF-8"?>
<svg width="18px" height="18px" viewBox="0 0 18 18" version="1.1" xmlns="http://www.w3.org/2000/svg" xmlns:xlink="http://www.w3.org/1999/xlink">
    <title>第二名</title>
    <g id="工程车" stroke="none" stroke-width="1" fill="none" fill-rule="evenodd">
        <g id="工程车专题-工程车" transform="translate(-1532.000000, -608.000000)" fill-rule="nonzero">
            <g id="编组-21" transform="translate(1532.000000, 569.000000)">
                <g id="编组-18" transform="translate(0.000000, 36.000000)">
                    <g id="第二名" transform="translate(0.000000, 3.000000)">
                        <path d="M8.94287109,18 C13.8683057,18 17.865769,14.0025366 17.865769,9.07710205 C17.865769,4.15166748 13.8683057,0.154182129 8.94287109,0.154182129 C4.01743652,0.154182129 0.0199731445,4.15166748 0.0199731445,9.07712402 C0.0199731445,14.0025806 4.01743652,18 8.94287109,18 Z" id="路径" fill="#D7DCE3"></path>
                        <path d="M15.3673682,9.07710205 C15.3673682,5.50792969 12.5120215,2.65260498 8.94287109,2.65260498 C5.3737207,2.65260498 2.51837402,5.50795166 2.51837402,9.07710205 C2.51837402,12.6462524 5.3737207,15.5015771 8.94287109,15.5015771 C12.5120215,15.5015771 15.3673682,12.6462524 15.3673682,9.07712402 L15.3673682,9.07710205 Z" id="路径" fill="#D7DCE3"></path>
                        <path d="M15.3673682,9.07710205 C15.3673682,5.50792969 12.5120215,2.65260498 8.94287109,2.65260498 C5.3737207,2.65260498 2.51837402,5.50795166 2.51837402,9.07710205 C2.51837402,12.6462524 5.3737207,15.5015771 8.94287109,15.5015771 C12.5120215,15.5015771 15.3673682,12.6462524 15.3673682,9.07712402 L15.3673682,9.07710205 Z M16.0811938,9.07710205 C16.0811938,13.0031763 12.8689453,16.2154248 8.94287109,16.2154248 C5.01679687,16.2154248 1.80454834,13.0031763 1.80454834,9.07710205 C1.80454834,5.15102783 5.01679687,1.9387793 8.94287109,1.9387793 C12.8689453,1.9387793 16.0811938,5.15100586 16.0811938,9.07710205 L16.0811938,9.07710205 Z" id="形状" fill="#B3BDCA"></path>
                        <g id="2" transform="translate(5.000000, 4.000000)">
                            <g id="path-1-link" transform="translate(1.000000, 1.000000)" fill="#808EA1">
                                <path d="M5.8897333,8.65429688 L5.8897333,7.34179688 L2.40340522,7.34179688 L2.39168648,7.31249998 L3.79793648,5.625 C4.46199898,4.87890626 4.9297724,4.29492188 5.2012568,3.87304688 C5.4727412,3.45117188 5.6084833,2.984375 5.6084833,2.47265626 C5.6084833,1.71875 5.3662959,1.11816407 4.8819209,0.67089844 C4.39754585,0.22363282 3.71785835,-2.66453526e-14 2.84285835,-2.66453526e-14 C1.96785835,-2.66453526e-14 1.27059272,0.26269532 0.751061482,0.78808594 C0.231530222,1.31347657 -0.018469778,1.95507813 0.00106148203,2.71289063 L0.00106148203,2.71289063 L0.012780222,2.74804688 L1.67684272,2.74804688 C1.67684272,2.33398438 1.77840522,1.9921875 1.98153022,1.72265626 C2.18465522,1.453125 2.4717646,1.31835938 2.84285835,1.31835938 C3.19442085,1.31835938 3.45809272,1.42382813 3.63387398,1.63476563 C3.80965522,1.84570313 3.89754585,2.12695313 3.89754585,2.47851563 C3.89754585,2.74804688 3.81453804,3.04394532 3.64852241,3.36621094 C3.48250679,3.68847657 3.20223335,4.08203126 2.8077021,4.546875 L2.8077021,4.546875 L0.165123982,7.53515628 L0.165123982,8.65429688 L5.8897333,8.65429688 Z" id="path-1"></path>
                            </g>
                            <g id="path-1-link" fill="#FFFFFF">
                                <path d="M6.4101562,9 L6.4101562,7.6875 L2.92382812,7.6875 L2.91210938,7.6582031 L4.31835938,5.97070312 C4.98242188,5.22460938 5.4501953,4.640625 5.7216797,4.21875 C5.9931641,3.796875 6.1289062,3.33007812 6.1289062,2.81835938 C6.1289062,2.06445312 5.8867188,1.46386719 5.4023438,1.01660156 C4.91796875,0.56933594 4.23828125,0.34570312 3.36328125,0.34570312 C2.48828125,0.34570312 1.79101562,0.60839844 1.27148438,1.13378906 C0.75195312,1.65917969 0.50195312,2.30078125 0.52148438,3.05859375 L0.52148438,3.05859375 L0.53320312,3.09375 L2.19726562,3.09375 C2.19726562,2.6796875 2.29882812,2.33789062 2.50195312,2.06835938 C2.70507812,1.79882812 2.9921875,1.6640625 3.36328125,1.6640625 C3.71484375,1.6640625 3.97851562,1.76953125 4.15429688,1.98046875 C4.33007812,2.19140625 4.41796875,2.47265625 4.41796875,2.82421875 C4.41796875,3.09375 4.33496094,3.38964844 4.16894531,3.71191406 C4.00292969,4.03417969 3.72265625,4.42773438 3.328125,4.89257812 L3.328125,4.89257812 L0.68554688,7.8808594 L0.68554688,9 L6.4101562,9 Z" id="path-1"></path>
                            </g>
                        </g>
                    </g>
                </g>
            </g>
        </g>
    </g>
</svg>