<?xml version="1.0" encoding="UTF-8"?>
<svg width="18px" height="18px" viewBox="0 0 18 18" version="1.1" xmlns="http://www.w3.org/2000/svg" xmlns:xlink="http://www.w3.org/1999/xlink">
    <title>第三名</title>
    <g id="工程车" stroke="none" stroke-width="1" fill="none" fill-rule="evenodd">
        <g id="工程车专题-工程车" transform="translate(-1532.000000, -644.000000)" fill-rule="nonzero">
            <g id="编组-21" transform="translate(1532.000000, 569.000000)">
                <g id="编组-19" transform="translate(0.000000, 72.000000)">
                    <g id="第三名" transform="translate(0.000000, 3.000000)">
                        <path d="M8.94287109,18 C13.8683057,18 17.865769,14.0025366 17.865769,9.07710205 C17.865769,4.15166748 13.8683057,0.154182129 8.94287109,0.154182129 C4.01743652,0.154182129 0.0199731445,4.15166748 0.0199731445,9.07712402 C0.0199731445,14.0025806 4.01743652,18 8.94287109,18 Z" id="路径" fill="#D7A586"></path>
                        <path d="M15.3673682,9.07710205 C15.3673682,5.50792969 12.5120215,2.65260498 8.94287109,2.65260498 C5.3737207,2.65260498 2.51837402,5.50795166 2.51837402,9.07710205 C2.51837402,12.6462524 5.3737207,15.5015771 8.94287109,15.5015771 C12.5120215,15.5015771 15.3673682,12.6462524 15.3673682,9.07712402 L15.3673682,9.07710205 Z" id="路径" fill="#D7A586"></path>
                        <path d="M15.3673682,9.07710205 C15.3673682,5.50792969 12.5120215,2.65260498 8.94287109,2.65260498 C5.3737207,2.65260498 2.51837402,5.50795166 2.51837402,9.07710205 C2.51837402,12.6462524 5.3737207,15.5015771 8.94287109,15.5015771 C12.5120215,15.5015771 15.3673682,12.6462524 15.3673682,9.07712402 L15.3673682,9.07710205 Z M16.0811938,9.07710205 C16.0811938,13.0031763 12.8689453,16.2154248 8.94287109,16.2154248 C5.01679687,16.2154248 1.80454834,13.0031763 1.80454834,9.07710205 C1.80454834,5.15102783 5.01679687,1.9387793 8.94287109,1.9387793 C12.8689453,1.9387793 16.0811938,5.15100586 16.0811938,9.07710205 L16.0811938,9.07710205 Z" id="形状" fill="#A37B62"></path>
                        <g id="3" transform="translate(5.000000, 4.000000)">
                            <g id="path-1-link" transform="translate(1.000000, 1.000000)" fill="#76543F">
                                <path d="M2.8837637,8.77734378 C3.7665762,8.77734378 4.49020898,8.55371098 5.05466218,8.10644528 C5.61911528,7.65917968 5.90134188,7.04492188 5.90134188,6.26367188 C5.90134188,5.77929688 5.78024808,5.36621094 5.53806058,5.02441407 C5.29587308,4.68261719 4.95212308,4.42773438 4.50681058,4.25976563 C4.89743558,4.07226563 5.20505278,3.81542969 5.42966218,3.48925782 C5.65427148,3.16308594 5.76657618,2.8046875 5.76657618,2.4140625 C5.76657618,1.63671876 5.50681058,1.04003907 4.98727928,0.62402344 C4.46774808,0.20800782 3.7665762,-4.52970994e-14 2.8837637,-4.52970994e-14 C2.09079496,-4.52970994e-14 1.42477933,0.21679688 0.885716826,0.65039063 C0.346654326,1.08398438 0.0888418263,1.63476563 0.112279326,2.30273438 L0.112279326,2.30273438 L0.123998076,2.33789063 L1.77634183,2.33789063 C1.77634183,2.04101563 1.88278714,1.796875 2.09567777,1.60546876 C2.30856839,1.4140625 2.5712637,1.31835938 2.8837637,1.31835938 C3.25485746,1.31835938 3.54391996,1.42382813 3.7509512,1.63476563 C3.95798246,1.84570313 4.06149808,2.11132813 4.06149808,2.43164063 C4.06149808,2.81445313 3.96286527,3.11132813 3.76559964,3.32226563 C3.56833402,3.53320313 3.2665762,3.63867188 2.8603262,3.63867188 L2.8603262,3.63867188 L1.91696683,3.63867188 L1.91696683,4.921875 L2.8603262,4.921875 C3.2978262,4.921875 3.62985746,5.03027344 3.85641996,5.24707032 C4.08298246,5.46386719 4.1962637,5.79687498 4.1962637,6.24609378 C4.1962637,6.59765628 4.07516996,6.88867188 3.83298246,7.11914068 C3.59079496,7.34960938 3.2743887,7.46484378 2.8837637,7.46484378 C2.52829496,7.46484378 2.23825589,7.35644528 2.01364652,7.13964848 C1.78903714,6.92285158 1.67673246,6.65429688 1.67673246,6.33398438 L1.67673246,6.33398438 L0.0126699563,6.33398438 L0.000951196298,6.36914068 C-0.0185800437,7.13085938 0.262669956,7.72265628 0.844701196,8.14453128 C1.42673246,8.56640628 2.10641996,8.77734378 2.8837637,8.77734378 Z" id="path-1"></path>
                            </g>
                            <g id="path-1-link" fill="#FFFFFF">
                                <path d="M3.41601562,9.1230469 C4.29882812,9.1230469 5.0224609,8.8994141 5.5869141,8.4521484 C6.1513672,8.0048828 6.4335938,7.390625 6.4335938,6.609375 C6.4335938,6.125 6.3125,5.71191406 6.0703125,5.37011719 C5.828125,5.02832031 5.484375,4.7734375 5.0390625,4.60546875 C5.4296875,4.41796875 5.7373047,4.16113281 5.9619141,3.83496094 C6.1865234,3.50878906 6.2988281,3.15039062 6.2988281,2.75976562 C6.2988281,1.98242188 6.0390625,1.38574219 5.5195312,0.96972656 C5,0.55371094 4.29882812,0.34570312 3.41601562,0.34570312 C2.62304688,0.34570312 1.95703125,0.5625 1.41796875,0.99609375 C0.87890625,1.4296875 0.62109375,1.98046875 0.64453125,2.6484375 L0.64453125,2.6484375 L0.65625,2.68359375 L2.30859375,2.68359375 C2.30859375,2.38671875 2.41503906,2.14257812 2.62792969,1.95117188 C2.84082031,1.75976562 3.10351562,1.6640625 3.41601562,1.6640625 C3.78710938,1.6640625 4.07617188,1.76953125 4.28320312,1.98046875 C4.49023438,2.19140625 4.59375,2.45703125 4.59375,2.77734375 C4.59375,3.16015625 4.49511719,3.45703125 4.29785156,3.66796875 C4.10058594,3.87890625 3.79882812,3.984375 3.39257812,3.984375 L3.39257812,3.984375 L2.44921875,3.984375 L2.44921875,5.26757812 L3.39257812,5.26757812 C3.83007812,5.26757812 4.16210938,5.37597656 4.38867188,5.59277344 C4.61523438,5.80957031 4.72851562,6.1425781 4.72851562,6.5917969 C4.72851562,6.9433594 4.60742188,7.234375 4.36523438,7.4648438 C4.12304688,7.6953125 3.80664062,7.8105469 3.41601562,7.8105469 C3.06054688,7.8105469 2.77050781,7.7021484 2.54589844,7.4853516 C2.32128906,7.2685547 2.20898438,7 2.20898438,6.6796875 L2.20898438,6.6796875 L0.54492188,6.6796875 L0.53320312,6.7148438 C0.51367188,7.4765625 0.79492188,8.0683594 1.37695312,8.4902344 C1.95898438,8.9121094 2.63867188,9.1230469 3.41601562,9.1230469 Z" id="path-1"></path>
                            </g>
                        </g>
                    </g>
                </g>
            </g>
        </g>
    </g>
</svg>