<?xml version="1.0" encoding="UTF-8"?>
<svg width="24px" height="24px" viewBox="0 0 24 24" version="1.1" xmlns="http://www.w3.org/2000/svg" xmlns:xlink="http://www.w3.org/1999/xlink">
    <title>图标/畅行</title>
    <g id="控件" stroke="none" stroke-width="1" fill="none" fill-rule="evenodd">
        <g id="图标/畅行" fill="#FFFFFF" fill-rule="nonzero">
            <g id="畅行" transform="translate(4.000000, 2.000000)">
                <path d="M9.0290476,1.61767165 C9.02810548,2.27014969 9.42042243,2.85890545 10.0229628,3.10925224 C10.6255033,3.35959902 11.3195263,3.2222017 11.7812322,2.76116363 C12.2429381,2.30012555 12.3813399,1.60630218 12.1318656,1.0034 C11.8823913,0.400497816 11.2942041,0.00732834507 10.6417254,0.00732834507 C9.75197916,0.00732834507 9.03033632,0.727926393 9.0290476,1.61767165 L9.0290476,1.61767165 Z M15.5055678,9.3078125 C14.6199932,9.06557195 13.8290946,8.55959333 13.2379621,7.85710827 C12.9069762,7.44161532 12.6534551,6.40640405 12.484441,4.75851673 C12.4838464,4.73440552 12.4790812,4.71057937 12.4703565,4.68809419 C12.2736438,4.30807108 11.91231,4.04032013 11.4914833,3.96274208 C10.8474495,3.86280847 10.1918551,3.86280847 9.5478213,3.96274208 C9.52389785,3.96914238 9.50038117,3.97697637 9.47739877,3.98620158 L9.45158451,3.98620158 C9.4095336,4.00280161 9.36873646,4.02241689 9.32951144,4.04489437 C8.98679577,4.2256382 8.08538732,4.84535651 7.00323504,6.76084947 C6.44827569,7.84136392 6.11844884,9.02329464 6.0337368,10.2350352 L6.0337368,10.4439481 C6.08744998,10.6779619 6.29599323,10.8436308 6.53609155,10.8430238 C6.73769823,10.8404433 6.92007608,10.7228077 7.00556778,10.5402069 C7.27552817,9.78901849 7.88820423,8.16225792 8.07130282,7.67634243 C8.10659267,7.58179978 8.16092034,7.49551069 8.23091989,7.4228213 C8.51743877,7.12991619 8.83192838,6.86574698 9.16989437,6.63408891 L9.16989437,12.1035871 C9.17322011,12.1150886 9.17322011,12.1272969 9.16989437,12.1387984 C8.94619977,13.1010634 8.59571889,14.0293641 8.12764085,14.8993618 C7.71214789,15.6880942 6.91637324,16.6998239 6.01496479,18.0237676 C5.94087451,18.1549136 5.90129442,18.3027237 5.89993398,18.4533451 C5.92728615,18.6225516 6.0021917,18.7804913 6.11591109,18.9087368 C6.26783941,19.0704009 6.48363032,19.1563771 6.70510563,19.1434859 C6.8767278,19.1447531 7.04228499,19.0800755 7.16753961,18.9627421 C7.18162412,18.9627421 7.18866637,18.9416153 7.20275088,18.9275308 C8.10415933,18.1528829 8.77317342,17.0824604 9.3506382,16.1106294 C9.9262864,15.1257135 10.4413271,14.1066046 10.8928917,13.0589789 C10.9110863,13.0186901 10.947708,12.9897421 10.9911092,12.9813419 C11.0345104,12.9729417 11.0792884,12.9861349 11.1112016,13.0167254 C12.2864803,14.1247066 12.9977479,15.0268999 13.2450044,15.7233055 C13.5098298,16.5529275 13.6753052,17.4110358 13.7379621,18.2796435 C13.7489418,18.5858464 13.978921,18.8396069 14.2825704,18.8805678 L14.5853873,18.8805678 C14.9356527,18.8485891 15.2120861,18.5691833 15.2403169,18.218596 C15.2121479,16.0918354 14.9398548,14.6458407 14.5525308,13.850066 C14.1440801,12.9909111 13.2387544,11.878235 11.8365537,10.5120379 C11.8005142,10.4802951 11.7821327,10.4330286 11.7872579,10.3852773 C11.8858495,9.14584067 11.9703565,8.58246039 12.0337368,8.68105194 C12.9351452,10.1247139 14.456272,10.3993618 15.3201364,10.4486576 C15.5977775,10.465332 15.8460387,10.2768928 15.9046435,10.0049956 L15.9046435,9.98386884 C15.9676082,9.68903601 15.7941234,9.3951431 15.5055678,9.3078125 L15.5055678,9.3078125 Z" id="形状"></path>
                <path d="M1.97271127,14.1951364 L5.77788292,14.1951364 C6.24736649,14.1951364 6.48210827,14.4298782 6.48210827,14.8993618 C6.48210827,15.3688454 6.24736649,15.6035871 5.77788292,15.6035871 L1.97271127,15.6035871 C1.5032277,15.6035871 1.26848592,15.3688454 1.26848592,14.8993618 C1.26848592,14.4298782 1.5032277,14.1951364 1.97271127,14.1951364 Z M0.716835387,16.6810519 L4.52200704,16.6810519 C4.99149061,16.6810519 5.22623239,16.9157937 5.22623239,17.3852773 C5.22623239,17.8547609 4.99149061,18.0895026 4.52200704,18.0895026 L0.716835387,18.0895026 C0.247351819,18.0895026 0.0126100352,17.8547609 0.0126100352,17.3852773 C0.0126100352,16.9157937 0.247351819,16.6810519 0.716835387,16.6810519 Z" id="形状"></path>
            </g>
        </g>
    </g>
</svg>